<svg id="Layer_1" data-name="Layer 1" xmlns="http://www.w3.org/2000/svg" viewBox="0 0 628.24 634.73"><defs><style>.cls-1{font-size:183px;fill:#193651;font-family:NunitoSans-SemiBold, Nunito Sans;font-weight:600;letter-spacing:0.08em;}.cls-2{letter-spacing:0.06em;}.cls-3{letter-spacing:0.07em;}.cls-4{fill:#16233b;}</style></defs><text class="cls-1" transform="translate(0 586.42)">F<tspan class="cls-2" x="116.39" y="0">L</tspan><tspan class="cls-3" x="228.2" y="0">AKE</tspan></text><path class="cls-4" d="M336.36,623.44l-.26-252.38s-.65-7.17,2.6-9.13S547.21,240.74,547.21,240.74s6.52-2.61,12.38,0L768.75,360.63s5.86,2.61,4.56,8.47l.19,251.82-15.11-8.56L759,603s5,2.91,5-1.65V371.27a5.77,5.77,0,0,0-2.61-5.21L557.64,250.21s-3.91-2.61-7.39,0L347.09,367.5s-3,3-2.61,6.51l1,229.36s-.43,3.91,3.91,2.17l3.48,8.69Z" transform="translate(-225 -239.58)"/><path class="cls-4" d="M368.07,601.31V388.13s-.56-6.15,2.24-7.83,179-104.07,179-104.07,5.59-2.24,10.63,0l179.6,103s5,2.24,3.92,7.27l.16,218.1-14-7.28.23-9s4.36,2.36,4.62-.36l1-197.59a5,5,0,0,0-2.24-4.48L557.3,285.5s-3.36-2.23-6.34,0L380.65,385.22s-2.61,2.61-2.24,5.59l-2,196.86s.17,3.11,3.9,1.62l2.36,5.48Z" transform="translate(-225 -239.58)"/><path class="cls-4" d="M396.17,583.29l1-178.18s-.47-5.23,1.9-6.65S547.24,312,547.24,312s4.76-1.9,9,0l152.64,82.5s4.28,1.9,3.33,6.18l.14,186.5L700.31,581l.35-7.54s3.55,2.14,3.77-1.07V404.27a4.19,4.19,0,0,0-1.9-3.8L554.85,320.19s-2.85-1.9-5.39,0l-142,82.6s-2.22,2.21-1.9,4.75l.13,164.87s0,3.11,3.16,1.84l2.1,4.6Z" transform="translate(-225 -239.58)"/><path class="cls-4" d="M424.44,568.7V420.25s-.39-4.28,1.56-5.45,124.68-72.47,124.68-72.47,3.9-1.56,7.4,0L683.16,414s3.5,1.56,2.72,5.06L686,571.26l-11.08-5.06.91-5.31s2.92.57,2.47-2.06V424.38a3.44,3.44,0,0,0-1.56-3.11L556.92,351.39s-2.34-1.56-4.42,0L433.42,419.53a5.38,5.38,0,0,0-1.56,3.89l1,135.15s-.09,2.76,2.51,1.73l1.9,4.77Z" transform="translate(-225 -239.58)"/><path class="cls-4" d="M454.74,552.51V438.79s-.3-3.29,1.19-4.18,95.52-55.52,95.52-55.52a8.09,8.09,0,0,1,5.67,0L652.93,434s2.69,1.19,2.09,3.88l1.09,115.81-11-3.88,0-4.45s2.33,1.18,2.54-1l-1-103.51a2.64,2.64,0,0,0-1.19-2.39L556.22,388a3.06,3.06,0,0,0-3.38,0L464.31,438.7a4.13,4.13,0,0,0-1.19,3V543.75s-.2,1.79,1.79,1l1.59,5Z" transform="translate(-225 -239.58)"/><path class="cls-4" d="M621.17,533.2V457.87a1.91,1.91,0,0,0-.86-1.72l-63.16-34.52a2.22,2.22,0,0,0-2.44,0l-60.3,34.66a3,3,0,0,0-.86,2.15v72.61l0,2.19,0,2.44-8.49,1V454.8s-.21-2.37.86-3,68.74-40,68.74-40a5.85,5.85,0,0,1,4.08,0l69,39.52a2.57,2.57,0,0,1,1.51,2.79l.06,83.35" transform="translate(-225 -239.58)"/><polygon class="cls-4" points="533.97 363.44 396.17 293.61 396.31 301.12 548.5 381.33 533.97 363.44"/><polygon class="cls-4" points="124.39 365.96 260.11 294.53 268.6 296.1 111.36 383.86 124.39 365.96"/><line class="cls-4" x1="396.17" y1="293.61" x2="404.31" y2="297.92"/></svg>